<svg width="116" height="46" viewBox="0 0 116 46" fill="none" xmlns="http://www.w3.org/2000/svg">
<path d="M73.4358 24.3899C68.1607 24.5513 64.8795 25.5018 64.8795 28.9271C64.8795 31.1509 66.6742 33.554 71.2243 33.554C77.3333 33.554 80.5782 30.2542 80.5782 24.8741V24.2823C78.4391 24.2823 75.8106 24.3002 73.4358 24.3899ZM86.3972 31.5096C86.3972 33.1774 86.4516 34.8452 86.5785 36.3158H81.1764C81.0314 35.0784 80.977 33.8768 80.977 32.6932C78.0584 36.2441 74.5779 37.2663 69.7559 37.2663C62.5954 37.2663 58.7704 33.5181 58.7704 29.1961C58.7704 22.9193 63.9912 20.7134 73.0189 20.5162C75.5024 20.4624 78.276 20.4444 80.5782 20.4444V19.8347C80.5782 15.6382 77.859 13.9166 73.1458 13.9166C69.6471 13.9166 67.0548 15.3513 66.8011 17.8261H60.692C61.3446 11.6569 67.8887 10.0967 73.6534 10.0967C80.5601 10.0967 86.3972 12.5177 86.3972 19.745V31.5096ZM23.1311 21.3232C22.7142 11.5134 7.26926 11.1727 6.01844 21.3232H23.1311ZM5.90967 25.161C6.54415 35.6164 20.2669 35.455 22.4423 29.0347H28.4426C27.2824 35.2039 20.6476 37.3021 14.9555 37.3021C4.58634 37.3021 0 31.653 0 24.0312C0 15.6382 4.74949 10.1146 15.0461 10.1146C23.258 10.1146 29.2583 14.3649 29.2583 23.6366V25.161H5.90967ZM44.1594 33.3567C49.5615 33.3567 53.2596 29.501 53.2596 23.7084C53.2596 17.8979 49.5615 14.06 44.1594 14.06C38.7936 14.06 35.0592 17.8979 35.0592 23.7084C35.0592 29.501 38.7936 33.3567 44.1594 33.3567ZM29.2583 0H35.0774V14.4546C37.9234 11.101 41.8572 10.1146 45.7184 10.1146C52.19 10.1146 59.3868 14.4366 59.3868 23.7801C59.3868 31.5992 53.6765 37.3021 45.6096 37.3021C41.3858 37.3021 37.434 35.8136 34.9686 32.8366C34.9686 34.0203 34.8961 35.2039 34.7692 36.3337H29.0589C29.1496 34.5045 29.2583 32.2448 29.2583 30.3977V0ZM116 11.0651L98.0172 46H91.5093L96.6757 36.2979L83.1524 11.0651H89.9503L99.9025 30.7743L109.837 11.0651H116Z" fill="black"/>
</svg>
